# xmcd
#
# Track frame offsets:
#	150
#	12767
#	26241
#	39049
#	60644
#	74387
#	90831
#	108815
#	121631
#	135386
#
# Disc length: 1974 seconds
#
# Revision: 0
# Processed by: cddbd v1.5.1PL0 Copyright (c) Steve Scherf et al.
# Submitted via: dBpowerAMP V4.0
#
DISCID=6b07b40a
DTITLE=Merle Haggard - Okie From Muskogee
DYEAR=2005
DGENRE=Country
TTITLE0=If You Want To Be My Woman
TTITLE1=Workin' Man's Blues
TTITLE2=Okie From Muskogee
TTITLE3=The Bottle Let Me Down
TTITLE4=Mama Tried
TTITLE5=Ramblin' Fever
TTITLE6=What Am I Gonna Do
TTITLE7=Big City
TTITLE8=That's The Way Love Goes
TTITLE9=Ida Red
EXTD=
EXTT0=
EXTT1=
EXTT2=
EXTT3=
EXTT4=
EXTT5=
EXTT6=
EXTT7=
EXTT8=
EXTT9=
PLAYORDER=
